<svg width="31" height="31" viewBox="0 0 31 31" fill="none" xmlns="http://www.w3.org/2000/svg">
<path fill-rule="evenodd" clip-rule="evenodd" d="M7.74998 15.5C7.74998 15.7569 7.85204 16.0033 8.03372 16.185C8.21539 16.3667 8.4618 16.4688 8.71873 16.4688L19.9427 16.4688L15.7829 20.6266C15.6928 20.7167 15.6213 20.8236 15.5726 20.9413C15.5238 21.059 15.4988 21.1851 15.4988 21.3125C15.4988 21.4399 15.5238 21.566 15.5726 21.6837C15.6213 21.8014 15.6928 21.9083 15.7829 21.9984C15.8729 22.0884 15.9799 22.1599 16.0975 22.2086C16.2152 22.2574 16.3413 22.2825 16.4687 22.2825C16.5961 22.2825 16.7222 22.2574 16.8399 22.2086C16.9576 22.1599 17.0645 22.0884 17.1546 21.9984L22.9671 16.1859C23.0573 16.0959 23.1289 15.989 23.1777 15.8713C23.2266 15.7536 23.2517 15.6274 23.2517 15.5C23.2517 15.3726 23.2266 15.2464 23.1777 15.1287C23.1289 15.011 23.0573 14.9041 22.9671 14.8141L17.1546 9.00163C16.9727 8.81972 16.726 8.71753 16.4687 8.71753C16.2115 8.71753 15.9648 8.81972 15.7829 9.00163C15.6009 9.18353 15.4988 9.43025 15.4988 9.6875C15.4988 9.94476 15.6009 10.1915 15.7829 10.3734L19.9427 14.5313L8.71873 14.5313C8.4618 14.5313 8.21539 14.6333 8.03372 14.815C7.85204 14.9967 7.74998 15.2431 7.74998 15.5Z" fill="white"/>
</svg>
