<svg width="31" height="31" viewBox="0 0 31 31" fill="none" xmlns="http://www.w3.org/2000/svg">
<path fill-rule="evenodd" clip-rule="evenodd" d="M23.25 15.5C23.25 15.7569 23.148 16.0033 22.9663 16.185C22.7846 16.3667 22.5382 16.4688 22.2813 16.4688L11.0573 16.4688L15.2171 20.6266C15.3072 20.7167 15.3787 20.8236 15.4274 20.9413C15.4762 21.059 15.5012 21.1851 15.5012 21.3125C15.5012 21.4399 15.4762 21.566 15.4274 21.6837C15.3787 21.8014 15.3072 21.9083 15.2171 21.9984C15.1271 22.0884 15.0201 22.1599 14.9025 22.2086C14.7848 22.2574 14.6587 22.2825 14.5313 22.2825C14.4039 22.2825 14.2778 22.2574 14.1601 22.2086C14.0424 22.1599 13.9355 22.0884 13.8454 21.9984L8.0329 16.1859C7.94268 16.0959 7.8711 15.989 7.82227 15.8713C7.77343 15.7536 7.74829 15.6274 7.74829 15.5C7.74829 15.3726 7.77343 15.2464 7.82227 15.1287C7.8711 15.011 7.94268 14.9041 8.0329 14.8141L13.8454 9.00163C14.0273 8.81972 14.274 8.71753 14.5313 8.71753C14.7885 8.71753 15.0352 8.81972 15.2171 9.00163C15.3991 9.18353 15.5012 9.43025 15.5012 9.6875C15.5012 9.94476 15.3991 10.1915 15.2171 10.3734L11.0573 14.5313L22.2813 14.5313C22.5382 14.5313 22.7846 14.6333 22.9663 14.815C23.148 14.9967 23.25 15.2431 23.25 15.5Z" fill="white"/>
</svg>
